<svg xmlns="http://www.w3.org/2000/svg" width="21" height="25" viewBox="0 0 21 25" fill="none">
  <path d="M10.2564 25C11.6667 25 12.8205 23.8462 12.8205 22.4359H7.69231C7.69231 23.1159 7.96245 23.7681 8.44332 24.249C8.92418 24.7299 9.57637 25 10.2564 25ZM17.9487 17.3077V10.8974C17.9487 6.96154 15.8462 3.66667 12.1795 2.79487V1.92308C12.1795 0.858974 11.3205 0 10.2564 0C9.19231 0 8.33333 0.858974 8.33333 1.92308V2.79487C4.65385 3.66667 2.5641 6.94872 2.5641 10.8974V17.3077L0 19.8718V21.1538H20.5128V19.8718L17.9487 17.3077Z" fill="black"/>
</svg>