<svg xmlns="http://www.w3.org/2000/svg" width="25" height="25" viewBox="0 0 25 25" fill="none">
  <path d="M25 12.5C25 18.5406 19.4031 23.4375 12.5 23.4375C11.262 23.4392 10.029 23.2784 8.83281 22.9594C7.92031 23.4219 5.825 24.3094 2.3 24.8875C1.9875 24.9375 1.75 24.6125 1.87344 24.3219C2.42656 23.0156 2.92656 21.275 3.07656 19.6875C1.1625 17.7656 0 15.25 0 12.5C0 6.45937 5.59687 1.5625 12.5 1.5625C19.4031 1.5625 25 6.45937 25 12.5ZM7.8125 12.5C7.8125 12.0856 7.64788 11.6882 7.35485 11.3951C7.06183 11.1021 6.6644 10.9375 6.25 10.9375C5.8356 10.9375 5.43817 11.1021 5.14515 11.3951C4.85212 11.6882 4.6875 12.0856 4.6875 12.5C4.6875 12.9144 4.85212 13.3118 5.14515 13.6049C5.43817 13.8979 5.8356 14.0625 6.25 14.0625C6.6644 14.0625 7.06183 13.8979 7.35485 13.6049C7.64788 13.3118 7.8125 12.9144 7.8125 12.5ZM14.0625 12.5C14.0625 12.0856 13.8979 11.6882 13.6049 11.3951C13.3118 11.1021 12.9144 10.9375 12.5 10.9375C12.0856 10.9375 11.6882 11.1021 11.3951 11.3951C11.1021 11.6882 10.9375 12.0856 10.9375 12.5C10.9375 12.9144 11.1021 13.3118 11.3951 13.6049C11.6882 13.8979 12.0856 14.0625 12.5 14.0625C12.9144 14.0625 13.3118 13.8979 13.6049 13.6049C13.8979 13.3118 14.0625 12.9144 14.0625 12.5ZM18.75 14.0625C19.1644 14.0625 19.5618 13.8979 19.8549 13.6049C20.1479 13.3118 20.3125 12.9144 20.3125 12.5C20.3125 12.0856 20.1479 11.6882 19.8549 11.3951C19.5618 11.1021 19.1644 10.9375 18.75 10.9375C18.3356 10.9375 17.9382 11.1021 17.6451 11.3951C17.3521 11.6882 17.1875 12.0856 17.1875 12.5C17.1875 12.9144 17.3521 13.3118 17.6451 13.6049C17.9382 13.8979 18.3356 14.0625 18.75 14.0625Z" fill="black"/>
</svg>