<svg xmlns="http://www.w3.org/2000/svg" width="20" height="15" viewBox="0 0 20 15" fill="none">
  <path fill-rule="evenodd" clip-rule="evenodd" d="M13.2368 1.36364H18.4091L19.0909 2.04545V14.3182L18.4091 15H0.681818L0 14.3182V2.04545L0.681818 1.36364H5.85409L7.01727 0.199091L7.5 0H11.5909L12.0736 0.199091L13.2368 1.36364ZM1.36364 13.6364H17.7273V2.72727H12.9545L12.4718 2.52818L11.3086 1.36364H7.78227L6.61909 2.52818L6.13636 2.72727H1.36364V13.6364ZM3.40909 4.09091C3.22826 4.09091 3.05484 4.16274 2.92697 4.29061C2.79911 4.41847 2.72727 4.5919 2.72727 4.77273C2.72727 4.95356 2.79911 5.12698 2.92697 5.25485C3.05484 5.38271 3.22826 5.45455 3.40909 5.45455C3.58992 5.45455 3.76334 5.38271 3.89121 5.25485C4.01907 5.12698 4.09091 4.95356 4.09091 4.77273C4.09091 4.5919 4.01907 4.41847 3.89121 4.29061C3.76334 4.16274 3.58992 4.09091 3.40909 4.09091ZM9.54545 5.45455C10.2688 5.45455 10.9625 5.74188 11.4739 6.25335C11.9854 6.76481 12.2727 7.4585 12.2727 8.18182C12.2727 8.90514 11.9854 9.59883 11.4739 10.1103C10.9625 10.6218 10.2688 10.9091 9.54545 10.9091C8.82214 10.9091 8.12844 10.6218 7.61698 10.1103C7.10552 9.59883 6.81818 8.90514 6.81818 8.18182C6.81818 7.4585 7.10552 6.76481 7.61698 6.25335C8.12844 5.74188 8.82214 5.45455 9.54545 5.45455ZM9.54545 4.09091C8.46048 4.09091 7.41994 4.52191 6.65275 5.28911C5.88555 6.0563 5.45455 7.09684 5.45455 8.18182C5.45455 9.2668 5.88555 10.3073 6.65275 11.0745C7.41994 11.8417 8.46048 12.2727 9.54545 12.2727C10.6304 12.2727 11.671 11.8417 12.4382 11.0745C13.2054 10.3073 13.6364 9.2668 13.6364 8.18182C13.6364 7.09684 13.2054 6.0563 12.4382 5.28911C11.671 4.52191 10.6304 4.09091 9.54545 4.09091Z" fill="black" fill-opacity="0.5"/>
</svg>