<svg xmlns="http://www.w3.org/2000/svg" width="24" height="25" viewBox="0 0 24 25" fill="none">
  <path fill-rule="evenodd" clip-rule="evenodd" d="M2.48648 12.4627C3.78445 12.4627 4.64819 11.5989 4.64819 10.3009L4.64192 9.61905C4.64192 9.61905 4.32056 7.68621 6.89924 7.68621L17.3409 7.75832V10.5157C17.5847 10.7579 17.9144 10.8938 18.258 10.8938C18.6016 10.8938 18.9313 10.7579 19.175 10.5157L23.2084 6.48387C23.4506 6.24011 23.5865 5.91045 23.5865 5.56683C23.5865 5.22322 23.4506 4.89355 23.2084 4.64979L19.175 0.378116C18.9313 0.135928 18.6016 0 18.258 0C17.9144 0 17.5847 0.135928 17.3409 0.378116V3.27032C17.0886 3.19664 7.2253 3.15431 7.2253 3.15431C1.40798 3.15431 0.135101 6.96198 0.135101 8.49508V10.1113C0.135101 10.7349 0.382835 11.333 0.823805 11.7739C1.26477 12.2149 1.86286 12.4627 2.48648 12.4627Z" fill="black"/>
  <path fill-rule="evenodd" clip-rule="evenodd" d="M21.2364 12.527C19.9385 12.527 18.8851 13.4424 18.8851 14.7404L18.8882 16.2406C18.8176 16.8002 17.8771 17.1655 16.4976 17.1655H6.24716L6.24403 14.7216C6.00027 14.4794 5.67061 14.3435 5.32699 14.3435C4.98337 14.3435 4.65371 14.4794 4.40995 14.7216L0.378116 18.7534C0.135928 18.9972 0 19.3269 0 19.6705C0 20.0141 0.135928 20.3438 0.378116 20.5875L4.40995 24.6193C4.53024 24.74 4.67316 24.8358 4.83053 24.9011C4.98789 24.9664 5.1566 25.0001 5.32699 25.0001C5.49738 25.0001 5.66609 24.9664 5.82345 24.9011C5.98082 24.8358 6.12374 24.74 6.24403 24.6193L6.24716 21.7177H16.4976C22.3149 21.7177 23.5878 17.8897 23.5878 16.355V14.7388C23.5878 13.4424 22.5344 12.527 21.2364 12.527Z" fill="black"/>
</svg>