<svg xmlns="http://www.w3.org/2000/svg" width="16" height="16" viewBox="0 0 16 16" fill="none">
  <path d="M1 3.5C1 2.83696 1.26339 2.20107 1.73223 1.73223C2.20107 1.26339 2.83696 1 3.5 1H7.5C8.16304 1 8.79893 1.26339 9.26777 1.73223C9.73661 2.20107 10 2.83696 10 3.5V4H9V3.5C9 3.10218 8.84196 2.72064 8.56066 2.43934C8.27936 2.15804 7.89782 2 7.5 2H3.5C3.10218 2 2.72064 2.15804 2.43934 2.43934C2.15804 2.72064 2 3.10218 2 3.5V7.5C2 7.89782 2.15804 8.27936 2.43934 8.56066C2.72064 8.84196 3.10218 9 3.5 9H9.085C9.20295 8.66639 9.43503 8.38522 9.74024 8.20618C10.0454 8.02715 10.4041 7.96177 10.7529 8.0216C11.1016 8.08144 11.418 8.26264 11.6461 8.53317C11.8741 8.8037 11.9992 9.14616 11.9992 9.5C11.9992 9.85384 11.8741 10.1963 11.6461 10.4668C11.418 10.7374 11.1016 10.9186 10.7529 10.9784C10.4041 11.0382 10.0454 10.9729 9.74024 10.7938C9.43503 10.6148 9.20295 10.3336 9.085 10H3.5C2.83696 10 2.20107 9.73661 1.73223 9.26777C1.26339 8.79893 1 8.16304 1 7.5V3.5ZM6 11V11.5C6 12.163 6.26339 12.7989 6.73223 13.2678C7.20107 13.7366 7.83696 14 8.5 14H12.5C13.163 14 13.7989 13.7366 14.2678 13.2678C14.7366 12.7989 15 12.163 15 11.5V7.5C15 6.83696 14.7366 6.20107 14.2678 5.73223C13.7989 5.26339 13.163 5 12.5 5H6.915C6.79705 4.66639 6.56497 4.38522 6.25976 4.20618C5.95455 4.02715 5.59588 3.96177 5.24713 4.0216C4.89839 4.08144 4.58202 4.26264 4.35395 4.53317C4.12588 4.8037 4.00079 5.14616 4.00079 5.5C4.00079 5.85384 4.12588 6.1963 4.35395 6.46683C4.58202 6.73736 4.89839 6.91856 5.24713 6.9784C5.59588 7.03823 5.95455 6.97285 6.25976 6.79382C6.56497 6.61478 6.79705 6.33361 6.915 6H12.5C12.8978 6 13.2794 6.15804 13.5607 6.43934C13.842 6.72064 14 7.10218 14 7.5V11.5C14 11.8978 13.842 12.2794 13.5607 12.5607C13.2794 12.842 12.8978 13 12.5 13H8.5C8.10218 13 7.72064 12.842 7.43934 12.5607C7.15804 12.2794 7 11.8978 7 11.5V11H6Z" fill="black"/>
</svg>