<svg xmlns="http://www.w3.org/2000/svg" width="26" height="25" viewBox="0 0 26 25" fill="none">
  <path d="M12.8571 0C22.8571 0 25.7143 4.15714 25.7143 9.28571C25.7143 14.4143 22.8571 18.5714 12.8571 18.5714C2.85714 18.5714 0 14.4143 0 9.28571C0 4.15714 2.85714 0 12.8571 0ZM6.42857 11.4286C7.61429 11.4286 8.57143 10.4714 8.57143 9.28571C8.57143 8.1 7.61429 7.14286 6.42857 7.14286C5.24286 7.14286 4.28571 8.1 4.28571 9.28571C4.28571 10.4714 5.24286 11.4286 6.42857 11.4286ZM12.8571 11.4286C14.0429 11.4286 15 10.4714 15 9.28571C15 8.1 14.0429 7.14286 12.8571 7.14286C11.6714 7.14286 10.7143 8.1 10.7143 9.28571C10.7143 10.4714 11.6714 11.4286 12.8571 11.4286ZM19.2857 11.4286C20.4714 11.4286 21.4286 10.4714 21.4286 9.28571C21.4286 8.1 20.4714 7.14286 19.2857 7.14286C18.1 7.14286 17.1429 8.1 17.1429 9.28571C17.1429 10.4714 18.1 11.4286 19.2857 11.4286ZM7.14286 19.2857C8.32857 19.2857 9.28571 20.2429 9.28571 21.4286C9.28571 22.6143 8.32857 23.5714 7.14286 23.5714C5.95714 23.5714 5 22.6143 5 21.4286C5 20.2429 5.95714 19.2857 7.14286 19.2857ZM2.85714 22.1429C3.64286 22.1429 4.28571 22.7857 4.28571 23.5714C4.28571 24.3571 3.64286 25 2.85714 25C2.07143 25 1.42857 24.3571 1.42857 23.5714C1.42857 22.7857 2.07143 22.1429 2.85714 22.1429Z" fill="black"/>
</svg>