<svg xmlns="http://www.w3.org/2000/svg" width="25" height="17" viewBox="0 0 25 17" fill="none">
  <path d="M20.1562 6.29167C19.8064 4.51846 18.8517 2.92173 17.4553 1.77421C16.0589 0.626701 14.3074 -0.000408586 12.5 1.99726e-07C9.48958 1.99726e-07 6.875 1.70833 5.57292 4.20833C4.04191 4.37378 2.62605 5.09917 1.59738 6.24513C0.56872 7.39108 -0.000178856 8.87675 4.218e-08 10.4167C4.218e-08 13.8646 2.80208 16.6667 6.25 16.6667H19.7917C22.6667 16.6667 25 14.3333 25 11.4583C25 8.70833 22.8646 6.47917 20.1562 6.29167ZM14.5833 9.375V13.5417H10.4167V9.375H7.29167L12.5 4.16667L17.7083 9.375H14.5833Z" fill="black"/>
</svg>