<svg xmlns="http://www.w3.org/2000/svg" width="25" height="27" viewBox="0 0 25 27" fill="none">
  <path d="M25 5.92105C25 6.24333 24.8816 6.55439 24.6675 6.79523C24.4533 7.03606 24.1582 7.18992 23.8382 7.22763L23.6842 7.23684H22.5724L20.9526 23.7105C20.8644 24.6044 20.4469 25.4335 19.7813 26.0367C19.1157 26.6398 18.2495 26.9738 17.3513 26.9737H7.64868C6.75046 26.9738 5.88431 26.6398 5.21869 26.0367C4.55306 25.4335 4.13556 24.6044 4.04737 23.7105L2.42763 7.23684H1.31579C0.96682 7.23684 0.632144 7.09821 0.385386 6.85146C0.138627 6.6047 0 6.27002 0 5.92105C0 5.57208 0.138627 5.23741 0.385386 4.99065C0.632144 4.74389 0.96682 4.60526 1.31579 4.60526H7.89474C7.89474 4.00049 8.01385 3.40164 8.24529 2.84291C8.47673 2.28417 8.81595 1.77649 9.24359 1.34885C9.67123 0.921212 10.1789 0.581991 10.7376 0.350555C11.2964 0.119119 11.8952 0 12.5 0C13.1048 0 13.7036 0.119119 14.2624 0.350555C14.8211 0.581991 15.3288 0.921212 15.7564 1.34885C16.1841 1.77649 16.5233 2.28417 16.7547 2.84291C16.9861 3.40164 17.1053 4.00049 17.1053 4.60526H23.6842C24.0332 4.60526 24.3679 4.74389 24.6146 4.99065C24.8614 5.23741 25 5.57208 25 5.92105ZM15.4605 10.1974C15.2221 10.1974 14.9917 10.2837 14.8119 10.4405C14.6322 10.5972 14.5153 10.8137 14.4829 11.05L14.4737 11.1842V20.3947L14.4829 20.5289C14.5154 20.7651 14.6323 20.9816 14.812 21.1383C14.9917 21.295 15.2221 21.3813 15.4605 21.3813C15.699 21.3813 15.9293 21.295 16.109 21.1383C16.2887 20.9816 16.4057 20.7651 16.4382 20.5289L16.4474 20.3947V11.1842L16.4382 11.05C16.4057 10.8137 16.2888 10.5972 16.1091 10.4405C15.9294 10.2837 15.699 10.1974 15.4605 10.1974ZM9.53947 10.1974C9.301 10.1974 9.0706 10.2837 8.89088 10.4405C8.71116 10.5972 8.59427 10.8137 8.56184 11.05L8.55263 11.1842V20.3947L8.56184 20.5289C8.59434 20.7651 8.71126 20.9816 8.89097 21.1383C9.07069 21.295 9.30105 21.3813 9.53947 21.3813C9.7779 21.3813 10.0083 21.295 10.188 21.1383C10.3677 20.9816 10.4846 20.7651 10.5171 20.5289L10.5263 20.3947V11.1842L10.5171 11.05C10.4847 10.8137 10.3678 10.5972 10.1881 10.4405C10.0083 10.2837 9.77794 10.1974 9.53947 10.1974ZM12.5 2.63158C11.9765 2.63158 11.4745 2.83952 11.1044 3.20966C10.7343 3.5798 10.5263 4.08181 10.5263 4.60526H14.4737C14.4737 4.08181 14.2657 3.5798 13.8956 3.20966C13.5255 2.83952 13.0235 2.63158 12.5 2.63158Z" fill="black"/>
</svg>