<svg xmlns="http://www.w3.org/2000/svg" width="25" height="25" viewBox="0 0 25 25" fill="none">
  <g clip-path="url(#clip0_101_817)">
    <path d="M2.08334 8.33329H22.9167M12.5 23.9583C18.8281 23.9583 23.9583 18.8281 23.9583 12.5C23.9583 6.17183 18.8281 1.04163 12.5 1.04163C6.17188 1.04163 1.04167 6.17183 1.04167 12.5C1.04167 18.8281 6.17188 23.9583 12.5 23.9583ZM12.5 23.9583C15.625 23.9583 16.6667 18.75 16.6667 12.5C16.6667 6.24996 15.625 1.04163 12.5 1.04163C9.375 1.04163 8.33334 6.24996 8.33334 12.5C8.33334 18.75 9.375 23.9583 12.5 23.9583ZM2.08334 16.6666H22.9167H2.08334Z" stroke="black" stroke-width="2"/>
  </g>
  <defs>
    <clipPath id="clip0_101_817">
      <rect width="25" height="25" fill="white"/>
    </clipPath>
  </defs>
</svg>