<svg xmlns="http://www.w3.org/2000/svg" width="25" height="25" viewBox="0 0 25 25" fill="none">
  <path d="M12.5 5C11.1963 5.00165 9.94644 5.52028 9.02459 6.44213C8.10274 7.36398 7.58411 8.61381 7.58246 9.9175H10.0825C10.0825 8.58375 11.1675 7.5 12.5 7.5C13.8325 7.5 14.9175 8.58375 14.9175 9.9175C14.9175 10.665 14.3162 11.2075 13.3975 11.95C13.0973 12.1851 12.809 12.435 12.5337 12.6988C11.2862 13.945 11.25 15.2688 11.25 15.4163V16.25H13.75L13.7487 15.4587C13.75 15.4387 13.79 14.9763 14.3 14.4675C14.4875 14.28 14.7237 14.0925 14.9687 13.895C15.9425 13.1062 17.4162 11.915 17.4162 9.9175C17.4152 8.61382 16.897 7.3638 15.9753 6.44184C15.0535 5.51988 13.8036 5.00132 12.5 5ZM11.25 17.5H13.75V20H11.25V17.5Z" fill="black"/>
  <path d="M12.5 0C5.6075 0 0 5.6075 0 12.5C0 19.3925 5.6075 25 12.5 25C19.3925 25 25 19.3925 25 12.5C25 5.6075 19.3925 0 12.5 0ZM12.5 22.5C6.98625 22.5 2.5 18.0138 2.5 12.5C2.5 6.98625 6.98625 2.5 12.5 2.5C18.0138 2.5 22.5 6.98625 22.5 12.5C22.5 18.0138 18.0138 22.5 12.5 22.5Z" fill="black"/>
</svg>