<svg xmlns="http://www.w3.org/2000/svg" width="26" height="25" viewBox="0 0 26 25" fill="none">
  <path d="M8.75 8.1875C8.75132 6.01645 9.61436 3.93469 11.1495 2.39953C12.6847 0.864359 14.7664 0.00132462 16.9375 0C21.4325 0 25.125 3.52375 25.125 8.0625C25.1237 10.2336 24.2606 12.3153 22.7255 13.8505C21.1903 15.3856 19.1086 16.2487 16.9375 16.25C16.2738 16.25 15.6188 16.155 14.9975 15.995C14.9826 16.3989 14.8118 16.7814 14.5209 17.062C14.23 17.3426 13.8417 17.4996 13.4375 17.5H11.25V19.6875C11.25 20.55 10.55 21.25 9.6875 21.25H7.5V22.8125C7.5 23.3927 7.26953 23.9491 6.8593 24.3593C6.44906 24.7695 5.89266 25 5.3125 25H2.1875C1.60734 25 1.05094 24.7695 0.640704 24.3593C0.230468 23.9491 0 23.3927 0 22.8125V20.0975C0 19.185 0.3625 18.3113 1.0075 17.6675L8.8 9.8725C8.83802 9.83243 8.86582 9.78379 8.88105 9.7307C8.89628 9.67761 8.89849 9.62163 8.8875 9.5675C8.80172 9.11236 8.75571 8.65062 8.75 8.1875ZM20.375 6.1875C20.375 5.7731 20.2104 5.37567 19.9174 5.08265C19.6243 4.78962 19.2269 4.625 18.8125 4.625C18.3981 4.625 18.0007 4.78962 17.7076 5.08265C17.4146 5.37567 17.25 5.7731 17.25 6.1875C17.25 6.6019 17.4146 6.99933 17.7076 7.29235C18.0007 7.58538 18.3981 7.75 18.8125 7.75C19.2269 7.75 19.6243 7.58538 19.9174 7.29235C20.2104 6.99933 20.375 6.6019 20.375 6.1875Z" fill="black"/>
</svg>