<svg xmlns="http://www.w3.org/2000/svg" width="54" height="54" viewBox="0 0 54 54" fill="none">
  <g filter="url(#filter0_d_101_386)">
    <path d="M43.1284 6.76724C39.3726 2.9813 34.4156 0.62631 29.1119 0.108287C23.8083 -0.409736 18.4903 0.941668 14.0749 3.92952C9.6595 6.91736 6.42333 11.3544 4.92432 16.4757C3.42531 21.597 3.75741 27.0816 5.86335 31.984C6.08285 32.4396 6.15487 32.9525 6.06936 33.4511L4.05504 43.1481C3.97743 43.5199 3.99328 43.9052 4.10115 44.2693C4.20903 44.6334 4.40556 44.965 4.67307 45.2342C4.89237 45.4523 5.15347 45.6236 5.44065 45.7378C5.72783 45.8521 6.03514 45.9069 6.34404 45.899H6.80185L16.5988 43.9275C17.0967 43.8676 17.6017 43.9387 18.0638 44.1339C22.9588 46.243 28.4352 46.5755 33.5489 45.0743C38.6625 43.573 43.093 40.332 46.0763 35.91C49.0597 31.488 50.4091 26.1621 49.8919 20.8505C49.3746 15.5389 47.0232 10.5745 43.2429 6.81309L43.1284 6.76724ZM17.7891 25.2672C17.3364 25.2672 16.8938 25.1327 16.5174 24.8808C16.141 24.6289 15.8476 24.2709 15.6743 23.852C15.5011 23.4331 15.4557 22.9722 15.5441 22.5275C15.6324 22.0828 15.8504 21.6743 16.1705 21.3537C16.4906 21.0331 16.8985 20.8148 17.3425 20.7263C17.7865 20.6379 18.2468 20.6833 18.6651 20.8568C19.0833 21.0303 19.4408 21.3241 19.6923 21.7011C19.9438 22.0781 20.0781 22.5213 20.0781 22.9747C20.0781 23.5827 19.8369 24.1658 19.4077 24.5957C18.9784 25.0256 18.3962 25.2672 17.7891 25.2672ZM26.9451 25.2672C26.4924 25.2672 26.0498 25.1327 25.6734 24.8808C25.297 24.6289 25.0036 24.2709 24.8304 23.852C24.6571 23.4331 24.6118 22.9722 24.7001 22.5275C24.7884 22.0828 25.0064 21.6743 25.3265 21.3537C25.6467 21.0331 26.0545 20.8148 26.4986 20.7263C26.9426 20.6379 27.4028 20.6833 27.8211 20.8568C28.2393 21.0303 28.5968 21.3241 28.8484 21.7011C29.0999 22.0781 29.2341 22.5213 29.2341 22.9747C29.2341 23.5827 28.993 24.1658 28.5637 24.5957C28.1344 25.0256 27.5522 25.2672 26.9451 25.2672ZM36.1012 25.2672C35.6484 25.2672 35.2059 25.1327 34.8294 24.8808C34.453 24.6289 34.1596 24.2709 33.9864 23.852C33.8131 23.4331 33.7678 22.9722 33.8561 22.5275C33.9444 22.0828 34.1625 21.6743 34.4826 21.3537C34.8027 21.0331 35.2106 20.8148 35.6546 20.7263C36.0986 20.6379 36.5589 20.6833 36.9771 20.8568C37.3954 21.0303 37.7529 21.3241 38.0044 21.7011C38.2559 22.0781 38.3902 22.5213 38.3902 22.9747C38.3902 23.5827 38.149 24.1658 37.7197 24.5957C37.2905 25.0256 36.7082 25.2672 36.1012 25.2672Z" fill="#BAD1FF"/>
  </g>
  <defs>
    <filter id="filter0_d_101_386" x="0" y="0" width="54" height="54" filterUnits="userSpaceOnUse" color-interpolation-filters="sRGB">
      <feFlood flood-opacity="0" result="BackgroundImageFix"/>
      <feColorMatrix in="SourceAlpha" type="matrix" values="0 0 0 0 0 0 0 0 0 0 0 0 0 0 0 0 0 0 127 0" result="hardAlpha"/>
      <feOffset dy="4"/>
      <feGaussianBlur stdDeviation="2"/>
      <feColorMatrix type="matrix" values="0 0 0 0 0 0 0 0 0 0 0 0 0 0 0 0 0 0 0.25 0"/>
      <feBlend mode="normal" in2="BackgroundImageFix" result="effect1_dropShadow_101_386"/>
      <feBlend mode="normal" in="SourceGraphic" in2="effect1_dropShadow_101_386" result="shape"/>
    </filter>
  </defs>
</svg>