<svg xmlns="http://www.w3.org/2000/svg" width="25" height="25" viewBox="0 0 25 25" fill="none">
  <path d="M12.5 25C11.8368 24.9967 11.2015 24.7327 10.7314 24.2649C10.2613 23.7971 9.99406 23.1632 9.9875 22.5H14.9875C14.9905 22.8341 14.9272 23.1655 14.8012 23.475C14.6395 23.8459 14.392 24.173 14.079 24.4295C13.7661 24.6859 13.3967 24.8643 13.0013 24.95H12.9437C12.7977 24.9802 12.6491 24.997 12.5 25ZM22.5 21.25H2.5V18.75L5 17.5V10.625C4.93415 8.8614 5.33242 7.11141 6.155 5.55C6.5598 4.83409 7.11179 4.21214 7.77456 3.72518C8.43734 3.23823 9.19583 2.89734 10 2.725V0H15V2.725C18.2237 3.4925 20 6.2975 20 10.625V17.5L22.5 18.75V21.25ZM24.9625 10H22.4625C22.405 8.40343 21.9953 6.83931 21.2627 5.41956C20.5302 3.99982 19.4929 2.75954 18.225 1.7875L20 0C21.4951 1.1631 22.7032 2.65388 23.5312 4.3575C24.3875 6.12128 24.8745 8.04134 24.9625 10ZM2.5 10H0C0.0875 8.04125 0.575 6.12125 1.43125 4.3575C2.25933 2.65388 3.46743 1.1631 4.9625 0L6.7375 1.7875C5.46951 2.75942 4.43209 3.99967 3.69952 5.41944C2.96694 6.83922 2.55733 8.4034 2.5 10Z" fill="black"/>
</svg>