<svg xmlns="http://www.w3.org/2000/svg" width="47" height="46" viewBox="0 0 47 46" fill="none">
  <path d="M45.6719 40.3931C44.1769 39.0604 42.8681 37.5325 41.7806 35.8507C40.5934 33.5292 39.8819 30.994 39.6877 28.3938V20.7353C39.698 16.6512 38.2165 12.7039 35.5217 9.63508C32.8268 6.56626 29.104 4.58713 25.0529 4.06954V2.06965C25.0529 1.52075 24.8348 0.994322 24.4467 0.606187C24.0585 0.218052 23.5321 0 22.9832 0C22.4343 0 21.9079 0.218052 21.5198 0.606187C21.1316 0.994322 20.9136 1.52075 20.9136 2.06965V4.10055C16.8987 4.65544 13.2209 6.64654 10.5615 9.70505C7.90202 12.7636 6.44108 16.6822 6.44925 20.7353V28.3938C6.25509 30.994 5.54353 33.5292 4.35635 35.8507C3.28801 37.5287 2.00019 39.0563 0.527103 40.3931C0.361734 40.5384 0.229199 40.7172 0.138314 40.9177C0.0474291 41.1182 0.000278738 41.3357 0 41.5558V43.6642C0 44.0754 0.163335 44.4697 0.454073 44.7605C0.744811 45.0512 1.13914 45.2145 1.5503 45.2145H44.6487C45.0598 45.2145 45.4542 45.0512 45.7449 44.7605C46.0356 44.4697 46.199 44.0754 46.199 43.6642V41.5558C46.1987 41.3357 46.1516 41.1182 46.0607 40.9177C45.9698 40.7172 45.8372 40.5384 45.6719 40.3931ZM3.22463 42.1139C4.66704 40.7205 5.93703 39.1591 7.00736 37.463C8.5028 34.6593 9.37534 31.5657 9.56536 28.3938V20.7353C9.50388 18.9184 9.80864 17.1077 10.4615 15.411C11.1144 13.7144 12.102 12.1664 13.3655 10.8594C14.6291 9.55237 16.1427 8.51296 17.8163 7.80309C19.49 7.09322 21.2893 6.72739 23.1072 6.72739C24.9252 6.72739 26.7245 7.09322 28.3981 7.80309C30.0718 8.51296 31.5854 9.55237 32.849 10.8594C34.1125 12.1664 35.1001 13.7144 35.753 15.411C36.4058 17.1077 36.7106 18.9184 36.6491 20.7353V28.3938C36.8391 31.5657 37.7117 34.6593 39.2071 37.463C40.2775 39.1591 41.5474 40.7205 42.9899 42.1139H3.22463Z" fill="#BAD1FF"/>
</svg>