<svg xmlns="http://www.w3.org/2000/svg" width="20" height="20" viewBox="0 0 20 20" fill="none">
  <path d="M18.0405 13.6386L15.2126 13.3158C14.88 13.2767 14.543 13.3135 14.2267 13.4234C13.9105 13.5334 13.6233 13.7135 13.3867 13.9504L11.3381 15.999C8.17746 14.3915 5.60849 11.8225 4.00105 8.66193L6.06076 6.60221C6.5395 6.12347 6.77331 5.45546 6.69537 4.77631L6.3725 1.97065C6.30938 1.42752 6.04873 0.926578 5.64017 0.563191C5.23162 0.199803 4.70369 -0.000648259 4.15692 1.57505e-06H2.23081C0.972712 1.57505e-06 -0.0738452 1.04656 0.0040899 2.30465C0.59417 11.8127 8.19841 19.4058 17.6953 19.9959C18.9534 20.0738 20 19.0273 20 17.7692V15.8431C20.0111 14.7186 19.165 13.7722 18.0405 13.6386Z" fill="#1A66FF"/>
</svg>