<svg xmlns="http://www.w3.org/2000/svg" width="25" height="25" viewBox="0 0 25 25" fill="none">
  <path d="M21.0526 6.57895V10.5132C21.0526 10.5132 18.4342 10.5263 18.4211 10.5132V6.57895H14.4737C14.4737 6.57895 14.4868 3.96053 14.4737 3.94737H18.4211V0H21.0526V3.94737H25V6.57895H21.0526ZM17.1053 11.8421V7.89474H13.1579V3.94737H2.63158C1.18421 3.94737 0 5.13158 0 6.57895V22.3684C0 23.8158 1.18421 25 2.63158 25H18.4211C19.8684 25 21.0526 23.8158 21.0526 22.3684V11.8421H17.1053ZM2.63158 22.3684L6.57895 17.1053L9.21053 21.0526L13.1579 15.7895L18.4211 22.3684H2.63158Z" fill="black"/>
</svg>