<svg xmlns="http://www.w3.org/2000/svg" width="25" height="25" viewBox="0 0 25 25" fill="none">
  <path d="M2.5 3.75C2.5 3.0625 3.0625 2.5 3.75 2.5H10C10.6875 2.5 11.25 1.9375 11.25 1.25C11.25 0.5625 10.6875 0 10 0H2.5C1.125 0 0 1.125 0 2.5V10C0 10.6875 0.5625 11.25 1.25 11.25C1.9375 11.25 2.5 10.6875 2.5 10V3.75ZM9.5125 14.3625L5.8125 18.9875C5.4875 19.4 5.775 20 6.3 20H18.75C18.8661 20 18.9798 19.9677 19.0786 19.9067C19.1773 19.8456 19.2571 19.7583 19.309 19.6545C19.3609 19.5507 19.3829 19.4345 19.3725 19.3189C19.3621 19.2033 19.3196 19.0929 19.25 19L16.75 15.6625C16.5 15.325 16 15.325 15.75 15.6625L13.7125 18.3875L10.4875 14.3625C10.4289 14.2895 10.3547 14.2306 10.2704 14.1901C10.186 14.1496 10.0936 14.1286 10 14.1286C9.90641 14.1286 9.81402 14.1496 9.72965 14.1901C9.64527 14.2306 9.57106 14.2895 9.5125 14.3625ZM18.75 8.125C18.75 7.0875 17.9125 6.25 16.875 6.25C15.8375 6.25 15 7.0875 15 8.125C15 9.1625 15.8375 10 16.875 10C17.9125 10 18.75 9.1625 18.75 8.125ZM22.5 0H15C14.3125 0 13.75 0.5625 13.75 1.25C13.75 1.9375 14.3125 2.5 15 2.5H21.25C21.9375 2.5 22.5 3.0625 22.5 3.75V10C22.5 10.6875 23.0625 11.25 23.75 11.25C24.4375 11.25 25 10.6875 25 10V2.5C25 1.125 23.875 0 22.5 0ZM22.5 21.25C22.5 21.9375 21.9375 22.5 21.25 22.5H15C14.3125 22.5 13.75 23.0625 13.75 23.75C13.75 24.4375 14.3125 25 15 25H22.5C23.875 25 25 23.875 25 22.5V15C25 14.3125 24.4375 13.75 23.75 13.75C23.0625 13.75 22.5 14.3125 22.5 15V21.25ZM1.25 13.75C0.5625 13.75 0 14.3125 0 15V22.5C0 23.875 1.125 25 2.5 25H10C10.6875 25 11.25 24.4375 11.25 23.75C11.25 23.0625 10.6875 22.5 10 22.5H3.75C3.0625 22.5 2.5 21.9375 2.5 21.25V15C2.5 14.3125 1.9375 13.75 1.25 13.75Z" fill="black"/>
</svg>