<svg xmlns="http://www.w3.org/2000/svg" width="21" height="25" viewBox="0 0 21 25" fill="none">
  <path d="M1.3639 3.76218C0.538682 4.12894 0 4.95415 0 5.8596V11.2464C0 17.6074 4.40115 23.5559 10.3152 25C16.2292 23.5559 20.6304 17.6074 20.6304 11.2464V5.8596C20.6304 4.95415 20.0917 4.12894 19.2665 3.76218L11.2436 0.197708C10.6476 -0.0659026 9.97135 -0.0659026 9.38682 0.197708L1.3639 3.76218ZM10.3152 6.66189C10.9456 6.66189 11.4613 7.17765 11.4613 7.80802C11.4613 8.4384 10.9456 8.95415 10.3152 8.95415C9.68481 8.95415 9.16905 8.4384 9.16905 7.80802C9.16905 7.17765 9.68481 6.66189 10.3152 6.66189ZM10.3152 11.2464C10.9456 11.2464 11.4613 11.7622 11.4613 12.3925V16.9771C11.4613 17.6074 10.9456 18.1232 10.3152 18.1232C9.68481 18.1232 9.16905 17.6074 9.16905 16.9771V12.3925C9.16905 11.7622 9.68481 11.2464 10.3152 11.2464Z" fill="black"/>
</svg>