<svg xmlns="http://www.w3.org/2000/svg" width="25" height="25" viewBox="0 0 25 25" fill="none">
  <path d="M4.16667 4.16663H6.94444V6.9444H4.16667V4.16663Z" fill="black"/>
  <path d="M0 11.1111V0H11.1111V11.1111H0ZM2.77778 2.77778V8.33333H8.33333V2.77778H2.77778Z" fill="black"/>
  <path d="M13.8889 13.8889H18.0556V16.6667H13.8889V13.8889Z" fill="black"/>
  <path d="M18.0556 16.6667H20.8333V13.8889H25V18.0556H20.8333V19.4445H22.2222V20.8334H25V25H22.2222V22.2222H19.4444V25H13.8889V19.4445H16.6667V22.2222H18.0556V16.6667Z" fill="black"/>
  <path d="M20.8333 4.16663H18.0556V6.9444H20.8333V4.16663Z" fill="black"/>
  <path d="M13.8889 0V11.1111H25V0H13.8889ZM22.2222 2.77778V8.33333H16.6667V2.77778H22.2222Z" fill="black"/>
  <path d="M4.16667 18.0555H6.94444V20.8333H4.16667V18.0555Z" fill="black"/>
  <path d="M0 25V13.8889H11.1111V25H0ZM2.77778 16.6667V22.2222H8.33333V16.6667H2.77778Z" fill="black"/>
</svg>