<svg xmlns="http://www.w3.org/2000/svg" width="15" height="23" viewBox="0 0 15 23" fill="none">
  <path d="M12.9688 9.9375V12.2812C12.9688 13.7317 12.3926 15.1227 11.367 16.1482C10.3414 17.1738 8.9504 17.75 7.5 17.75C6.0496 17.75 4.6586 17.1738 3.63301 16.1482C2.60742 15.1227 2.03125 13.7317 2.03125 12.2812V9.9375H0.46875V12.2812C0.469571 14.0102 1.10739 15.6782 2.26033 16.9667C3.41327 18.2551 5.0005 19.0735 6.71875 19.2656V20.875H3.59375V22.4375H11.4062V20.875H8.28125V19.2656C9.9995 19.0735 11.5867 18.2551 12.7397 16.9667C13.8926 15.6782 14.5304 14.0102 14.5312 12.2812V9.9375H12.9688Z" fill="white"/>
  <path d="M7.5 16.1875C8.536 16.1875 9.52957 15.7759 10.2621 15.0434C10.9947 14.3108 11.4062 13.3173 11.4062 12.2812V4.46875C11.4062 3.43275 10.9947 2.43918 10.2621 1.70661C9.52957 0.97405 8.536 0.5625 7.5 0.5625C6.464 0.5625 5.47043 0.97405 4.73786 1.70661C4.0053 2.43918 3.59375 3.43275 3.59375 4.46875V12.2812C3.59375 13.3173 4.0053 14.3108 4.73786 15.0434C5.47043 15.7759 6.464 16.1875 7.5 16.1875Z" fill="white"/>
</svg>