<svg xmlns="http://www.w3.org/2000/svg" width="46" height="46" viewBox="0 0 46 46" fill="none">
  <path d="M25.4794 4.19778e-06C26.1555 4.19778e-06 26.7604 0.420899 26.9881 1.05109L28.6119 5.55214C29.1937 5.69704 29.6928 5.84193 30.116 5.99373C30.5783 6.15933 31.174 6.41003 31.9099 6.75272L35.691 4.75175C35.9996 4.58823 36.353 4.52921 36.698 4.58354C37.043 4.63786 37.3611 4.8026 37.6045 5.05304L40.9302 8.4915C41.3718 8.9492 41.496 9.61849 41.2476 10.2027L39.4744 14.3587C39.7688 14.8992 40.0034 15.3615 40.1828 15.7479C40.376 16.1688 40.6151 16.7484 40.9003 17.4959L45.0333 19.2669C45.6543 19.5314 46.0384 20.1524 45.997 20.8171L45.6934 25.5895C45.6726 25.8995 45.5613 26.1967 45.3732 26.444C45.1852 26.6914 44.9286 26.8781 44.6354 26.981L40.7209 28.3725C40.6082 28.913 40.4909 29.3752 40.3668 29.7662C40.1664 30.3701 39.9377 30.9641 39.6814 31.5464L41.6478 35.8934C41.7866 36.1988 41.824 36.5406 41.7544 36.8688C41.6849 37.197 41.5121 37.4943 41.2614 37.7172L37.5217 41.0568C37.2755 41.2758 36.9681 41.4143 36.6409 41.4538C36.3137 41.4932 35.9823 41.4318 35.691 41.2776L31.8363 39.2352C31.2333 39.5546 30.6111 39.8364 29.9734 40.0793L28.2899 40.7095L26.7949 44.8495C26.6841 45.1526 26.4843 45.4152 26.2216 45.6028C25.9589 45.7904 25.6457 45.8942 25.323 45.9005L20.9531 45.9994C20.6218 46.0081 20.296 45.9139 20.0205 45.7298C19.7449 45.5457 19.5332 45.2807 19.4145 44.9714L17.6527 40.3093C17.0516 40.1039 16.4565 39.8815 15.868 39.6423C15.3867 39.434 14.9126 39.2092 14.4466 38.9684L10.0768 40.836C9.78886 40.9588 9.47143 40.9953 9.16313 40.941C8.85484 40.8867 8.56898 40.744 8.34036 40.5301L5.10667 37.4964C4.86592 37.2716 4.70196 36.9767 4.63798 36.6535C4.57401 36.3303 4.61326 35.9952 4.75018 35.6956L6.62922 31.6016C6.37931 31.1167 6.14763 30.6226 5.93464 30.1204C5.68602 29.5057 5.45593 28.8837 5.24466 28.2552L1.12781 27.0017C0.793169 26.9005 0.501295 26.6917 0.297511 26.4077C0.0937278 26.1236 -0.0105596 25.7802 0.00084515 25.4308L0.16184 21.0125C0.173299 20.7243 0.26335 20.4446 0.422255 20.2038C0.581159 19.963 0.802869 19.7703 1.06341 19.6464L5.38266 17.5718C5.58275 16.8381 5.75755 16.2677 5.91164 15.8514C6.12862 15.2954 6.36957 14.749 6.63382 14.2138L4.76168 10.2579C4.6196 9.95746 4.57646 9.61973 4.63845 9.29324C4.70044 8.96675 4.86437 8.66833 5.10667 8.4409L8.33576 5.39114C8.56212 5.17764 8.84535 5.0341 9.15137 4.97779C9.45739 4.92148 9.77317 4.9548 10.0607 5.07374L14.4259 6.87692C14.9089 6.55492 15.3459 6.29503 15.7415 6.08573C16.213 5.83503 16.8432 5.57284 17.6366 5.28994L19.1546 1.05569C19.2668 0.745813 19.4719 0.478125 19.742 0.289182C20.012 0.100239 20.3338 -0.000750368 20.6633 4.19778e-06H25.4794ZM24.3524 3.16707H21.7926L20.4011 7.06322C20.3193 7.2904 20.187 7.49603 20.014 7.66456C19.8411 7.8331 19.6322 7.96015 19.403 8.03611C18.4002 8.3696 17.6757 8.6571 17.2526 8.8802C16.8041 9.11709 16.2314 9.47819 15.5506 9.96118C15.3278 10.1176 15.0691 10.2151 14.7985 10.2449C14.5279 10.2747 14.2542 10.2356 14.0028 10.1314L9.79391 8.3949L8.15406 9.94508L9.86291 13.556C10.0699 13.993 10.0653 14.499 9.84911 14.9291C9.38912 15.8514 9.07863 16.5322 8.92224 16.9508C8.76584 17.3671 8.55655 18.0824 8.30126 19.0714C8.24347 19.2955 8.13736 19.5043 7.99036 19.6831C7.84336 19.8619 7.65902 20.0063 7.45029 20.1064L3.33343 22.082L3.25063 24.336L6.9765 25.4676C7.47099 25.6171 7.86197 25.9966 8.02527 26.4842C8.39326 27.5882 8.68764 28.4024 8.89924 28.913C9.1796 29.5609 9.48965 30.1956 9.82841 30.815C10.0607 31.2474 10.0768 31.7626 9.8721 32.2088L8.14486 35.9762L9.78011 37.5125L13.8786 35.76C14.0993 35.6656 14.3383 35.6216 14.5782 35.6312C14.8181 35.6407 15.0529 35.7036 15.2654 35.8152C16.1049 36.2568 16.7305 36.5627 17.1261 36.7306C17.5285 36.8985 18.299 37.1791 19.4168 37.5608C19.6387 37.6366 19.8411 37.7604 20.0097 37.9234C20.1782 38.0864 20.3088 38.2846 20.3919 38.5038L22.0203 42.8071L24.15 42.7611L25.5231 38.9569C25.6016 38.7399 25.7264 38.5425 25.8888 38.3784C26.0513 38.2144 26.2474 38.0877 26.4637 38.007L28.8487 37.1147C29.4513 36.8916 30.1827 36.5397 31.036 36.0567C31.2721 35.924 31.5378 35.8528 31.8087 35.8496C32.0796 35.8463 32.3469 35.9112 32.5861 36.0383L36.2131 37.9587L38.2531 36.1395L36.4684 32.1996C36.3767 31.9974 36.3291 31.7779 36.3287 31.5559C36.3283 31.3338 36.3751 31.1142 36.4661 30.9116C36.8847 29.9755 37.1676 29.2694 37.3102 28.8187C37.4505 28.3771 37.5953 27.74 37.7356 26.9212C37.7839 26.6431 37.9054 26.3828 38.0878 26.1674C38.2701 25.9519 38.5066 25.7889 38.7729 25.6953L42.5632 24.3498L42.7288 21.7278L39.0029 20.1317C38.8045 20.0472 38.6254 19.9233 38.4763 19.7676C38.3273 19.6118 38.2114 19.4274 38.1358 19.2255C37.8701 18.4923 37.5802 17.7682 37.2665 17.0543C36.9694 16.4327 36.6472 15.8235 36.3005 15.2281C36.1804 15.0178 36.1106 14.7825 36.0966 14.5407C36.0827 14.2989 36.1249 14.0571 36.22 13.8343L37.8874 9.92438L36.1303 8.10741L32.708 9.91978C32.4846 10.0383 32.2365 10.1027 31.9836 10.1079C31.7308 10.1131 31.4803 10.0589 31.2522 9.94968C30.5258 9.58851 29.7828 9.26155 29.0258 8.9699C28.3804 8.75312 27.7221 8.57646 27.0548 8.4409C26.79 8.38476 26.5439 8.26222 26.3395 8.08479C26.1351 7.90736 25.9792 7.68087 25.8864 7.42661L24.3501 3.16477L24.3524 3.16707ZM23.0552 12.9741C28.6556 12.9741 33.1979 17.466 33.1979 23.0043C33.1979 28.5427 28.6556 33.0322 23.0552 33.0322C17.4526 33.0322 12.9126 28.5427 12.9126 23.0043C12.9126 17.466 17.4526 12.9764 23.0552 12.9764V12.9741ZM23.0552 16.1435C19.2213 16.1435 16.1141 19.214 16.1141 23.0043C16.1141 26.7947 19.2213 29.8674 23.0552 29.8674C26.8869 29.8674 29.9941 26.7947 29.9941 23.0043C29.9941 19.214 26.8892 16.1435 23.0552 16.1435Z" fill="white" fill-opacity="0.7"/>
</svg>