<svg xmlns="http://www.w3.org/2000/svg" width="15" height="15" viewBox="0 0 15 15" fill="none">
  <g clip-path="url(#clip0_2_180)">
    <path d="M7.5 14.0625C5.75952 14.0625 4.09032 13.3711 2.85961 12.1404C1.6289 10.9097 0.9375 9.24048 0.9375 7.5C0.9375 5.75952 1.6289 4.09032 2.85961 2.85961C4.09032 1.6289 5.75952 0.9375 7.5 0.9375C9.24048 0.9375 10.9097 1.6289 12.1404 2.85961C13.3711 4.09032 14.0625 5.75952 14.0625 7.5C14.0625 9.24048 13.3711 10.9097 12.1404 12.1404C10.9097 13.3711 9.24048 14.0625 7.5 14.0625ZM7.5 15C9.48912 15 11.3968 14.2098 12.8033 12.8033C14.2098 11.3968 15 9.48912 15 7.5C15 5.51088 14.2098 3.60322 12.8033 2.1967C11.3968 0.790176 9.48912 0 7.5 0C5.51088 0 3.60322 0.790176 2.1967 2.1967C0.790176 3.60322 0 5.51088 0 7.5C0 9.48912 0.790176 11.3968 2.1967 12.8033C3.60322 14.2098 5.51088 15 7.5 15Z" fill="white" fill-opacity="0.5"/>
    <path d="M11.5603 8.90625C11.6426 9.04877 11.6859 9.21043 11.6859 9.375C11.6859 9.53957 11.6426 9.70123 11.5603 9.84375C11.149 10.5566 10.5571 11.1485 9.84434 11.5599C9.13156 11.9714 8.32298 12.1878 7.49998 12.1875C6.67713 12.1877 5.86875 11.9711 5.15615 11.5597C4.44355 11.1483 3.85186 10.5565 3.4406 9.84375C3.35836 9.7013 3.31504 9.53972 3.315 9.37524C3.31496 9.21076 3.35819 9.04916 3.44036 8.90667C3.52253 8.76418 3.64074 8.64581 3.78313 8.56346C3.92551 8.48111 4.08706 8.43767 4.25154 8.4375H10.7484C10.913 8.4375 11.0746 8.48082 11.2172 8.56311C11.3597 8.64539 11.478 8.76374 11.5603 8.90625ZM6.56248 6.09375C6.56248 6.87 6.14248 6.09375 5.62498 6.09375C5.10748 6.09375 4.68748 6.87 4.68748 6.09375C4.68748 5.3175 5.10748 4.6875 5.62498 4.6875C6.14248 4.6875 6.56248 5.3175 6.56248 6.09375ZM10.3125 6.09375C10.3125 6.87 9.89248 6.09375 9.37498 6.09375C8.85748 6.09375 8.43748 6.87 8.43748 6.09375C8.43748 5.3175 8.85748 4.6875 9.37498 4.6875C9.89248 4.6875 10.3125 5.3175 10.3125 6.09375Z" fill="white" fill-opacity="0.5"/>
  </g>
  <defs>
    <clipPath id="clip0_2_180">
      <rect width="15" height="15" fill="white"/>
    </clipPath>
  </defs>
</svg>